HIERARCHY
ROOT Hips
{
	OFFSET 0.000000 0.000000 0.000000
	CHANNELS 6 Xposition Yposition Zposition Xrotation Yrotation Zrotation
	JOINT LeftUpLeg_virtual
	{
		OFFSET 0.000000 0.000000 0.000000
		CHANNELS 3 Xrotation Yrotation Zrotation
		JOINT LeftUpLeg
		{
			OFFSET 11.394100 -6.187798 -0.413800
			CHANNELS 3 Xrotation Yrotation Zrotation
			JOINT LeftLeg
			{
				OFFSET 0.430247 -32.302673 3.732800
				CHANNELS 3 Xrotation Yrotation Zrotation
				JOINT LeftFoot
				{
					OFFSET -0.430247 -48.264931 -6.423300
					CHANNELS 3 Xrotation Yrotation Zrotation
					JOINT LeftToeBase
					{
						OFFSET 4.230900 -16.068199 23.438400
						CHANNELS 3 Xrotation Yrotation Zrotation
						JOINT LeftToe_End
						{
							OFFSET 4.510700 0.695400 19.974600
							CHANNELS 3 Xrotation Yrotation Zrotation
							End Site
							{
								OFFSET 0 0 0
							}
						}
					}
				}
			}
		}
	}
	JOINT RightUpLeg_virtual
	{
		OFFSET 0.000000 0.000000 0.000000
		CHANNELS 3 Xrotation Yrotation Zrotation
		JOINT RightUpLeg
		{
			OFFSET -11.333700 -6.187798 -0.413800
			CHANNELS 3 Xrotation Yrotation Zrotation
			JOINT RightLeg
			{
				OFFSET -0.430392 -32.302628 3.733000
				CHANNELS 3 Xrotation Yrotation Zrotation
				JOINT RightFoot
				{
					OFFSET 0.430392 -48.264973 -6.423500
					CHANNELS 3 Xrotation Yrotation Zrotation
					JOINT RightToeBase
					{
						OFFSET -4.230900 -16.068199 23.438400
						CHANNELS 3 Xrotation Yrotation Zrotation
						JOINT RightToe_End
						{
							OFFSET -4.510700 0.695400 19.974600
							CHANNELS 3 Xrotation Yrotation Zrotation
							End Site
							{
								OFFSET 0 0 0
							}
						}
					}
				}
			}
		}
	}
	JOINT Spine_virtual
	{
		OFFSET 0.000000 0.000000 0.000000
		CHANNELS 3 Xrotation Yrotation Zrotation
		JOINT Spine
		{
			OFFSET -0.002400 12.777504 0.315300
			CHANNELS 3 Xrotation Yrotation Zrotation
			JOINT Spine1
			{
				OFFSET -0.002067 5.816869 0.032633
				CHANNELS 3 Xrotation Yrotation Zrotation
				JOINT Spine1_split
				{
					OFFSET -0.002067 5.816869 0.032633
					CHANNELS 3 Xrotation Yrotation Zrotation
					JOINT Spine2
					{
						OFFSET -0.002067 5.816869 0.032633
						CHANNELS 3 Xrotation Yrotation Zrotation
						JOINT Neck_virtual
						{
							OFFSET 0.000000 0.000000 0.000000
							CHANNELS 3 Xrotation Yrotation Zrotation
							JOINT Neck
							{
								OFFSET -0.003700 21.199493 -0.826900
								CHANNELS 3 Xrotation Yrotation Zrotation
								JOINT Head
								{
									OFFSET 0.000000 20.442200 4.834800
									CHANNELS 3 Xrotation Yrotation Zrotation
									JOINT HeadTop_End
									{
										OFFSET 0.000000 34.668396 4.968400
										CHANNELS 3 Xrotation Yrotation Zrotation
										End Site
										{
											OFFSET 0 0 0
										}
									}
								}
							}
						}
						JOINT LeftShoulder_virtual
						{
							OFFSET 0.000000 0.000000 0.000000
							CHANNELS 3 Xrotation Yrotation Zrotation
							JOINT LeftShoulder
							{
								OFFSET 3.288150 8.794197 -1.372250
								CHANNELS 3 Xrotation Yrotation Zrotation
								JOINT LeftShoulder_split
								{
									OFFSET 3.288150 8.794197 -1.372250
									CHANNELS 3 Xrotation Yrotation Zrotation
									JOINT LeftArm
									{
										OFFSET 11.953299 -2.279007 -0.146200
										CHANNELS 3 Xrotation Yrotation Zrotation
										JOINT LeftForeArm
										{
											OFFSET 18.448900 0.000000 0.000000
											CHANNELS 3 Xrotation Yrotation Zrotation
											JOINT LeftHand
											{
												OFFSET 29.527798 0.000000 0.000000
												CHANNELS 3 Xrotation Yrotation Zrotation
												End Site
												{
													OFFSET 0 0 0
												}
											}
										}
									}
								}
							}
						}
						JOINT RightShoulder_virtual
						{
							OFFSET 0.000000 0.000000 0.000000
							CHANNELS 3 Xrotation Yrotation Zrotation
							JOINT RightShoulder
							{
								OFFSET -3.249400 8.794197 -1.372250
								CHANNELS 3 Xrotation Yrotation Zrotation
								JOINT RightShoulder_split
								{
									OFFSET -3.249400 8.794197 -1.372250
									CHANNELS 3 Xrotation Yrotation Zrotation
									JOINT RightArm
									{
										OFFSET -11.953299 -2.279007 -0.146200
										CHANNELS 3 Xrotation Yrotation Zrotation
										JOINT RightForeArm
										{
											OFFSET -18.448900 0.000000 0.000000
											CHANNELS 3 Xrotation Yrotation Zrotation
											JOINT RightHand
											{
												OFFSET -29.527802 0.000000 0.000000
												CHANNELS 3 Xrotation Yrotation Zrotation
												End Site
												{
													OFFSET 0 0 0
												}
											}
										}
									}
								}
							}
						}
					}
				}
			}
		}
	}
}
MOTION
Frames: 10
Frame Time: 0.03333333
3.036872 54.957649 -3.251232 0.000000 0.000000 0.000000 178.694073 -8.574849 171.066719 -81.250680 -29.866491 24.747935 114.505601 -16.049022 -3.678741 -25.485954 1.829197 -8.732157 -19.694280 -0.550907 0.596874 0.000000 0.000000 0.000000 178.742239 -6.408284 171.325364 -44.110096 5.963147 -27.554892 99.404285 11.209640 -1.206141 -42.180356 -9.116373 18.642564 -4.530132 -2.462968 0.676892 0.000000 0.000000 0.000000 179.144838 -7.368606 170.297858 7.620171 4.125289 -2.509098 7.523908 7.157800 -3.797980 0.574900 -2.993061 0.689277 0.000000 0.000000 0.000000 7.706341 6.646990 -3.649239 -4.603816 23.461809 7.476148 6.562422 33.093318 -23.931146 0.000000 0.000000 0.000000 8.340409 7.006116 -3.891911 1.069007 -13.577819 -10.505320 -3.322260 -1.602887 -3.841243 2.757638 2.153538 -31.888552 36.258899 -40.499053 0.915090 0.000000 0.000000 0.000000 7.882034 6.922834 -4.258056 5.281329 -18.254043 13.580354 2.176841 3.318263 -1.868187 12.653101 -13.109071 61.136771 34.531592 49.244086 -8.765986 0.000000 0.000000 0.000000 
3.032992 54.962940 -3.262066 0.000000 0.000000 0.000000 178.650606 -8.612071 171.058905 -81.324624 -29.866826 24.728987 114.486866 -16.056069 -3.678801 -25.464612 1.821293 -8.715836 -19.622155 -0.548730 0.590146 0.000000 0.000000 0.000000 178.697174 -6.437810 171.323315 -44.139186 5.914800 -27.586615 99.414913 11.221690 -1.212232 -42.198422 -9.100764 18.625895 -4.528115 -2.463359 0.680162 0.000000 0.000000 0.000000 179.099294 -7.394983 170.287736 7.593433 4.126796 -2.502385 7.485079 7.153683 -3.801321 0.572457 -2.994834 0.689352 0.000000 0.000000 0.000000 7.662759 6.642976 -3.651203 -4.659610 23.469595 7.466515 6.673962 33.081096 -23.932486 0.000000 0.000000 0.000000 8.307834 7.002161 -3.896674 1.068372 -13.614012 -10.506451 -3.301386 -1.598058 -3.835705 2.819038 2.193385 -31.841881 36.239706 -40.591797 0.899181 0.000000 0.000000 0.000000 7.847565 6.920782 -4.263732 5.286682 -18.286775 13.529914 2.174167 3.318870 -1.876448 12.658040 -13.104103 61.232086 34.542442 49.164876 -8.785021 0.000000 0.000000 0.000000 
3.030526 54.968422 -3.272736 0.000000 0.000000 0.000000 178.613176 -8.655086 171.046925 -81.389484 -29.888314 24.703582 114.465631 -16.066309 -3.682079 -25.432694 1.813779 -8.692815 -19.553585 -0.544244 0.575027 0.000000 0.000000 0.000000 178.658542 -6.470717 171.320255 -44.144066 5.864967 -27.617383 99.413171 11.233640 -1.214479 -42.222211 -9.088590 18.610146 -4.509347 -2.463948 0.684713 0.000000 0.000000 0.000000 179.058655 -7.427260 170.274007 7.564172 4.131532 -2.493276 7.452845 7.153397 -3.804675 0.567053 -2.999405 0.691519 0.000000 0.000000 0.000000 7.626636 6.642273 -3.655195 -4.682273 23.479276 7.455148 6.774436 33.077404 -23.949423 0.000000 0.000000 0.000000 8.282629 7.000933 -3.902462 1.067648 -13.659118 -10.508104 -3.279708 -1.586663 -3.825384 2.878623 2.256148 -31.784483 36.220046 -40.708050 0.890576 0.000000 0.000000 0.000000 7.818880 6.921760 -4.270309 5.290818 -18.324826 13.481271 2.168697 3.320343 -1.886997 12.657179 -13.095475 61.333371 34.544010 49.073697 -8.796115 0.000000 0.000000 0.000000 
3.030061 54.969002 -3.280758 0.000000 0.000000 0.000000 178.583574 -8.703246 171.032226 -81.459841 -29.938102 24.672062 114.450577 -16.083777 -3.680877 -25.372913 1.800544 -8.670942 -19.506511 -0.538025 0.553781 0.000000 0.000000 0.000000 178.628271 -6.509360 171.315870 -44.118511 5.809632 -27.646575 99.399538 11.243226 -1.210431 -42.254132 -9.082768 18.594480 -4.478042 -2.463768 0.691008 0.000000 0.000000 0.000000 179.024299 -7.466659 170.256303 7.537349 4.139529 -2.481805 7.429024 7.157654 -3.805776 0.560331 -2.995937 0.689642 0.000000 0.000000 0.000000 7.598440 6.645859 -3.658644 -4.667014 23.488935 7.436003 6.861962 33.081570 -23.984356 0.000000 0.000000 0.000000 8.266160 7.003116 -3.906688 1.067142 -13.715587 -10.510216 -3.261465 -1.566440 -3.814104 2.933782 2.346775 -31.720201 36.200139 -40.844883 0.889834 0.000000 0.000000 0.000000 7.797563 6.926664 -4.275126 5.295120 -18.362368 13.433824 2.165537 3.326264 -1.903342 12.661460 -13.080523 61.441117 34.531357 48.960005 -8.795329 0.000000 0.000000 0.000000 
3.032175 54.959290 -3.285389 0.000000 0.000000 0.000000 178.561786 -8.759604 171.016681 -81.551837 -30.015458 24.631592 114.447142 -16.109819 -3.672407 -25.283436 1.779904 -8.654338 -19.466898 -0.529265 0.522941 0.000000 0.000000 0.000000 178.606920 -6.555190 171.308917 -44.062944 5.749348 -27.672911 99.383569 11.250081 -1.201370 -42.296145 -9.084587 18.579392 -4.445232 -2.461683 0.697365 0.000000 0.000000 0.000000 178.998399 -7.514512 170.236304 7.518531 4.149804 -2.469189 7.416474 7.167034 -3.802068 0.549496 -2.990227 0.688062 0.000000 0.000000 0.000000 7.579492 6.654258 -3.658920 -4.612282 23.497671 7.403896 6.938074 33.094036 -24.041622 0.000000 0.000000 0.000000 8.259942 7.008736 -3.906142 1.067005 -13.783815 -10.514519 -3.250499 -1.539880 -3.800721 2.979625 2.463193 -31.652852 36.181059 -41.007879 0.900094 0.000000 0.000000 0.000000 7.785493 6.935724 -4.275204 5.300010 -18.397318 13.383751 2.166163 3.333625 -1.926442 12.673461 -13.057922 61.558009 34.503571 48.826031 -8.785085 0.000000 0.000000 0.000000 
3.036016 54.935867 -3.286018 0.000000 0.000000 0.000000 178.547770 -8.825497 171.002064 -81.675108 -30.113635 24.578892 114.455590 -16.142367 -3.657680 -25.174037 1.753835 -8.645236 -19.410103 -0.517339 0.481538 0.000000 0.000000 0.000000 178.593724 -6.609655 171.300612 -43.979926 5.689692 -27.694873 99.376589 11.254506 -1.190248 -42.350301 -9.095482 18.569329 -4.424695 -2.458073 0.702348 0.000000 0.000000 0.000000 178.982266 -7.569501 170.214830 7.511751 4.161503 -2.457003 7.418282 7.181186 -3.792231 0.541915 -2.979866 0.682560 0.000000 0.000000 0.000000 7.573037 6.666819 -3.654326 -4.520008 23.505259 7.354994 7.009177 33.116152 -24.126431 0.000000 0.000000 0.000000 8.266279 7.017778 -3.898832 1.067291 -13.861817 -10.521290 -3.245845 -1.512319 -3.787264 3.007375 2.596767 -31.583748 36.163570 -41.205500 0.924221 0.000000 0.000000 0.000000 7.785126 6.948795 -4.268675 5.306053 -18.431178 13.327693 2.166148 3.337760 -1.957092 12.688600 -13.032985 61.681908 34.463164 48.684373 -8.771991 0.000000 0.000000 0.000000 
3.039904 54.899418 -3.284466 0.000000 0.000000 0.000000 178.540107 -8.902219 170.989483 -81.826930 -30.221436 24.511626 114.468650 -16.178693 -3.637891 -25.062491 1.726809 -8.645998 -19.325894 -0.504839 0.439830 0.000000 0.000000 0.000000 178.586866 -6.671356 171.290489 -43.876678 5.640288 -27.710011 99.386786 11.257344 -1.180908 -42.419248 -9.116738 18.568231 -4.421932 -2.454998 0.704088 0.000000 0.000000 0.000000 178.975545 -7.632556 170.193998 7.518180 4.173673 -2.446852 7.435353 7.198817 -3.776631 0.535287 -2.962490 0.677349 0.000000 0.000000 0.000000 7.582417 6.683025 -3.644938 -4.392966 23.512284 7.292019 7.083225 33.151033 -24.244796 0.000000 0.000000 0.000000 8.286684 7.029455 -3.884634 1.067895 -13.944657 -10.530964 -3.243035 -1.486833 -3.770790 3.005997 2.733029 -31.516159 36.140706 -41.431504 0.957502 0.000000 0.000000 0.000000 7.797715 6.965060 -4.255467 5.313091 -18.469023 13.262176 2.160942 3.333964 -1.994911 12.695201 -13.003712 61.810910 34.414666 48.546341 -8.762932 0.000000 0.000000 0.000000 
3.043456 54.855125 -3.282791 0.000000 0.000000 0.000000 178.537757 -8.987732 170.977953 -81.987979 -30.325514 24.430567 114.477652 -16.214528 -3.618071 -24.968813 1.703787 -8.654024 -19.216329 -0.495303 0.408082 0.000000 0.000000 0.000000 178.584967 -6.738989 171.280681 -43.758126 5.609612 -27.717457 99.415234 11.259283 -1.176100 -42.502741 -9.146260 18.576810 -4.432112 -2.453311 0.702028 0.000000 0.000000 0.000000 178.977621 -7.700282 170.175734 7.535090 4.185484 -2.440407 7.467564 7.218940 -3.757877 0.535240 -2.949120 0.674363 0.000000 0.000000 0.000000 7.609322 6.702109 -3.633369 -4.240610 23.518114 7.223675 7.168166 33.200023 -24.398803 0.000000 0.000000 0.000000 8.322183 7.043211 -3.865690 1.069211 -14.027945 -10.542584 -3.241499 -1.462334 -3.753269 2.968491 2.855962 -31.450480 36.103526 -41.659673 0.989434 0.000000 0.000000 0.000000 7.823462 6.983708 -4.237942 5.321002 -18.517546 13.187810 2.151528 3.330165 -2.034376 12.685490 -12.962605 61.944037 34.358560 48.409526 -8.757499 0.000000 0.000000 0.000000 
3.045480 54.811077 -3.281338 0.000000 0.000000 0.000000 178.540216 -9.075817 170.966424 -82.136242 -30.418166 24.338650 114.477727 -16.245344 -3.599611 -24.896733 1.686371 -8.665675 -19.105648 -0.491435 0.397067 0.000000 0.000000 0.000000 178.587290 -6.810661 171.271078 -43.627171 5.602885 -27.716593 99.448640 11.259783 -1.175445 -42.594470 -9.182589 18.598026 -4.451966 -2.454171 0.697015 0.000000 0.000000 0.000000 178.985995 -7.772018 170.161978 7.558610 4.196394 -2.438703 7.512241 7.240164 -3.739762 0.540357 -2.935919 0.673645 0.000000 0.000000 0.000000 7.651748 6.722955 -3.622588 -4.074497 23.521688 7.163050 7.268859 33.263387 -24.585749 0.000000 0.000000 0.000000 8.371413 7.058186 -3.846320 1.071628 -14.103203 -10.555496 -3.237591 -1.439674 -3.732873 2.898420 2.948613 -31.391939 36.040706 -41.852886 1.007510 0.000000 0.000000 0.000000 7.861963 7.003725 -4.220166 5.330608 -18.583744 13.107590 2.140444 3.335327 -2.069223 12.657739 -12.894956 62.078619 34.291289 48.257848 -8.748111 0.000000 0.000000 0.000000 
3.046845 54.775772 -3.279484 0.000000 0.000000 0.000000 178.547634 -9.161508 170.954389 -82.253059 -30.494548 24.243319 114.469319 -16.267603 -3.584454 -24.839790 1.674399 -8.674831 -19.017711 -0.494276 0.409456 0.000000 0.000000 0.000000 178.594038 -6.882735 171.261611 -43.488122 5.618808 -27.708129 99.471624 11.258531 -1.177138 -42.686097 -9.222737 18.630304 -4.469851 -2.457673 0.691378 0.000000 0.000000 0.000000 178.999765 -7.844180 170.153673 7.584294 4.205818 -2.441603 7.565667 7.261446 -3.725382 0.545156 -2.924126 0.674098 0.000000 0.000000 0.000000 7.705020 6.745079 -3.615827 -3.905934 23.519500 7.124688 7.385313 33.338276 -24.796160 0.000000 0.000000 0.000000 8.431793 7.073675 -3.830110 1.075391 -14.161157 -10.569153 -3.230793 -1.416377 -3.709998 2.807992 2.993207 -31.348410 35.949782 -41.976437 1.003773 0.000000 0.000000 0.000000 7.910705 7.023974 -4.206074 5.341896 -18.671866 13.026398 2.131802 3.354705 -2.095382 12.610359 -12.787607 62.211152 34.207718 48.072073 -8.724190 0.000000 0.000000 0.000000 
